<?xml version="1.0" encoding="utf-8"?>
<!-- Generator: Adobe Illustrator 16.0.0, SVG Export Plug-In . SVG Version: 6.00 Build 0)  -->
<!DOCTYPE svg PUBLIC "-//W3C//DTD SVG 1.1//EN" "http://www.w3.org/Graphics/SVG/1.1/DTD/svg11.dtd">
<svg version="1.1" id="Layer_1" xmlns="http://www.w3.org/2000/svg" xmlns:xlink="http://www.w3.org/1999/xlink" x="0px" y="0px"
	 width="185px" height="32.031px" viewBox="0 0 185 32.031" enable-background="new 0 0 185 32.031" xml:space="preserve">
<g id="logo_ESG_UQAM">
	<path fill="#FFFFFF" d="M41.894,9.029C42.337,2.583,36.67,0.62,31.151,0.62C25.558,0.62,20,2.361,19.705,8.695
		c0,2.89,1.333,5.334,4.037,6.52c5.815,2.555,11.298,1.777,11.298,5.408c0,1.776-2.186,2.667-3.889,2.667
		c-2.667,0-4.52-1.371-4.482-3.89h-7.409c0.11,7.26,5.592,9.076,11.816,9.076c6.187,0,11.742-2.668,11.742-8.299
		c0-7.223-6.518-7.667-11-8.815c-1.963-0.519-4.334-1.148-4.334-3.112c0-1.333,1.482-2.444,3.186-2.444
		c1.259,0,2.222,0.297,2.852,0.852c0.667,0.556,1,1.333,0.963,2.371H41.894z"/>
	<path fill="#FFFFFF" d="M64.097,22.83v-4.928h-5.445l5.225-5.184h7.628v14.296c-6.001,0.89-7.148,1.446-13.594,1.446
		c-8.335-0.259-13.408-5.557-13.408-13.928c0-8.373,5.073-13.669,13.408-13.929C64.394,0.419,71.21,1.382,71.32,9.16h-7.408
		c-0.37-2.592-2.408-3.371-4.853-3.371c-5.001,0-6.778,4.409-6.778,8.743c0,5.258,2.631,8.741,7.965,8.741
		C61.616,23.274,62.986,23.052,64.097,22.83z"/>
	<polygon fill="#FFFFFF" points="7.407,22.417 15.216,22.417 20.362,27.602 0,27.602 0,0.859 20.346,0.859 15.141,6.024 
		7.407,6.044 7.407,11.564 15.383,11.564 15.383,16.75 7.407,16.75 	"/>
	<path fill="#FFFFFF" d="M138.409,31.218c-1.968,0.219-3.464,0.419-5.515,0.813c-1.585-0.521-7.564-3.024-10.879-4.062
		c-8.717-0.078-11.442-6.134-11.434-11.143c0.01-5.754,3.85-11.444,12.016-11.437c8.581,0.006,12.141,5.708,12.115,11.412
		c-0.021,5.077-3.797,9.688-8.049,10.52c0.456,0.081,0.371-0.039,1.427,0.301c0.683,0.219,8.817,2.843,10.318,3.333V31.218
		 M122.615,7.342c-5.044-0.023-6.908,4.73-6.934,9.463c-0.025,5.046,2.593,9.03,6.867,9.059c4.375,0.026,6.869-3.974,7.035-9.069
		C129.742,12.012,127.715,7.369,122.615,7.342z"/>
	<path fill="#FFFFFF" d="M141.549,21.06l-2.457,6.396h-3.646c1.084-2.654,9.121-20.662,9.513-21.644h2.493
		c0.689,1.278,8.851,19.727,9.735,21.644h-5.097l-2.58-6.396H141.549 M148.579,18.722l-3.136-7.787l-2.977,7.787H148.579z"/>
	<path fill="#FFFFFF" d="M172.037,20.404l-7.016-14.592h-2.952l-2.956,21.644h3.581l1.277-14.25
		c0.541,0.787,6.458,13.592,6.753,14.283h1.423l6.495-14.283l1.23,14.25H185l-2.777-21.644h-3.146L172.037,20.404z"/>
	<path fill="#FFFFFF" d="M103.443,5.812c0,2.704,0,10.99,0,12.17c-0.001,3.117-0.682,7.301-5.336,7.306
		c-2.965,0.001-5.248-1.618-5.252-5.601c-0.002-1.08,0-13.433,0-13.875h-4.861c0,2.164-0.006,11.817,0,13.784
		c0.018,5.594,4.329,8.202,9.523,8.244c6.748,0.054,9.754-3.861,9.768-8.467c0.006-3.197,0-13.561,0-13.561H103.443z"/>
	<path fill="#FFFFFF" d="M135.738,0.811c1.942-0.255,3.913-0.598,5.225-0.811c1.217,0.406,8.716,3.267,10.19,3.71v0.209
		c-1.179,0.195-2.207,0.426-3.714,0.87c-1.143-0.369-10.705-3.476-11.701-3.771V0.811z"/>
</g>
</svg>
